<mxfile host="app.diagrams.net" agent="Mozilla/5.0 (Windows NT 10.0; Win64; x64) AppleWebKit/537.36 (KHTML, like Gecko) Chrome/141.0.0.0 Safari/537.36" version="28.2.8" pages="4">
  <diagram id="C5RBs43oDa-KdzZeNtuy" name="Page-1">
    <mxGraphModel dx="969" dy="520" grid="1" gridSize="10" guides="1" tooltips="1" connect="1" arrows="1" fold="1" page="1" pageScale="1" pageWidth="827" pageHeight="1169" math="0" shadow="0">
      <root>
        <mxCell id="WIyWlLk6GJQsqaUBKTNV-0" />
        <mxCell id="WIyWlLk6GJQsqaUBKTNV-1" parent="WIyWlLk6GJQsqaUBKTNV-0" />
        <mxCell id="PlLzFZxoNGqUdtoRfsS2-1" value="Customer" style="shape=umlActor;verticalLabelPosition=bottom;verticalAlign=top;html=1;outlineConnect=0;" vertex="1" parent="WIyWlLk6GJQsqaUBKTNV-1">
          <mxGeometry x="80" y="170" width="30" height="60" as="geometry" />
        </mxCell>
        <mxCell id="PlLzFZxoNGqUdtoRfsS2-4" value="Browse Products" style="ellipse;whiteSpace=wrap;html=1;" vertex="1" parent="WIyWlLk6GJQsqaUBKTNV-1">
          <mxGeometry x="190" y="90" width="120" height="50" as="geometry" />
        </mxCell>
        <mxCell id="PlLzFZxoNGqUdtoRfsS2-5" value="Place Order" style="ellipse;whiteSpace=wrap;html=1;" vertex="1" parent="WIyWlLk6GJQsqaUBKTNV-1">
          <mxGeometry x="200" y="175" width="120" height="50" as="geometry" />
        </mxCell>
        <mxCell id="PlLzFZxoNGqUdtoRfsS2-6" value="Make Payment" style="ellipse;whiteSpace=wrap;html=1;" vertex="1" parent="WIyWlLk6GJQsqaUBKTNV-1">
          <mxGeometry x="190" y="260" width="120" height="50" as="geometry" />
        </mxCell>
        <mxCell id="PlLzFZxoNGqUdtoRfsS2-7" value="" style="endArrow=none;html=1;rounded=0;entryX=0;entryY=0.5;entryDx=0;entryDy=0;" edge="1" parent="WIyWlLk6GJQsqaUBKTNV-1" target="PlLzFZxoNGqUdtoRfsS2-4">
          <mxGeometry width="50" height="50" relative="1" as="geometry">
            <mxPoint x="120" y="180" as="sourcePoint" />
            <mxPoint x="440" y="250" as="targetPoint" />
          </mxGeometry>
        </mxCell>
        <mxCell id="PlLzFZxoNGqUdtoRfsS2-8" value="" style="endArrow=none;html=1;rounded=0;entryX=0;entryY=0.5;entryDx=0;entryDy=0;" edge="1" parent="WIyWlLk6GJQsqaUBKTNV-1" target="PlLzFZxoNGqUdtoRfsS2-5">
          <mxGeometry width="50" height="50" relative="1" as="geometry">
            <mxPoint x="120" y="200" as="sourcePoint" />
            <mxPoint x="230" y="200" as="targetPoint" />
          </mxGeometry>
        </mxCell>
        <mxCell id="PlLzFZxoNGqUdtoRfsS2-9" value="" style="endArrow=none;html=1;rounded=0;entryX=0;entryY=0.5;entryDx=0;entryDy=0;" edge="1" parent="WIyWlLk6GJQsqaUBKTNV-1" target="PlLzFZxoNGqUdtoRfsS2-6">
          <mxGeometry width="50" height="50" relative="1" as="geometry">
            <mxPoint x="120" y="220" as="sourcePoint" />
            <mxPoint x="200" y="230" as="targetPoint" />
          </mxGeometry>
        </mxCell>
        <mxCell id="PlLzFZxoNGqUdtoRfsS2-10" value="Manager" style="shape=umlActor;verticalLabelPosition=bottom;verticalAlign=top;html=1;outlineConnect=0;" vertex="1" parent="WIyWlLk6GJQsqaUBKTNV-1">
          <mxGeometry x="440" y="170" width="30" height="60" as="geometry" />
        </mxCell>
        <mxCell id="PlLzFZxoNGqUdtoRfsS2-11" value="Use Case Diagram" style="text;html=1;whiteSpace=wrap;strokeColor=none;fillColor=none;align=center;verticalAlign=middle;rounded=0;fontSize=18;fontStyle=1" vertex="1" parent="WIyWlLk6GJQsqaUBKTNV-1">
          <mxGeometry x="250" y="30" width="230" height="30" as="geometry" />
        </mxCell>
      </root>
    </mxGraphModel>
  </diagram>
  <diagram id="xi7W5qWMfQ0PHM5-YKa7" name="Trang-2">
    <mxGraphModel dx="969" dy="520" grid="1" gridSize="10" guides="1" tooltips="1" connect="1" arrows="1" fold="1" page="1" pageScale="1" pageWidth="827" pageHeight="1169" math="0" shadow="0">
      <root>
        <mxCell id="0" />
        <mxCell id="1" parent="0" />
        <mxCell id="XIbWdu8kBzOMppEouueE-2" value="" style="ellipse;fillColor=strokeColor;html=1;" vertex="1" parent="1">
          <mxGeometry x="80" y="90" width="30" height="30" as="geometry" />
        </mxCell>
        <mxCell id="XIbWdu8kBzOMppEouueE-3" value="" style="html=1;verticalAlign=bottom;labelBackgroundColor=none;endArrow=block;endFill=1;rounded=0;exitX=0.5;exitY=1;exitDx=0;exitDy=0;" edge="1" parent="1" source="XIbWdu8kBzOMppEouueE-2">
          <mxGeometry width="160" relative="1" as="geometry">
            <mxPoint x="330" y="270" as="sourcePoint" />
            <mxPoint x="95" y="160" as="targetPoint" />
          </mxGeometry>
        </mxCell>
        <mxCell id="XIbWdu8kBzOMppEouueE-4" value="Create Invoice" style="html=1;align=center;verticalAlign=top;rounded=1;absoluteArcSize=1;arcSize=10;dashed=0;whiteSpace=wrap;" vertex="1" parent="1">
          <mxGeometry x="32.5" y="160" width="125" height="30" as="geometry" />
        </mxCell>
        <mxCell id="XIbWdu8kBzOMppEouueE-5" value="" style="rhombus;" vertex="1" parent="1">
          <mxGeometry x="80" y="230" width="30" height="30" as="geometry" />
        </mxCell>
        <mxCell id="XIbWdu8kBzOMppEouueE-6" value="" style="html=1;verticalAlign=bottom;labelBackgroundColor=none;endArrow=block;endFill=1;rounded=0;exitX=0.5;exitY=1;exitDx=0;exitDy=0;entryX=0.5;entryY=0;entryDx=0;entryDy=0;" edge="1" parent="1" source="XIbWdu8kBzOMppEouueE-4" target="XIbWdu8kBzOMppEouueE-5">
          <mxGeometry width="160" relative="1" as="geometry">
            <mxPoint x="220" y="210" as="sourcePoint" />
            <mxPoint x="220" y="250" as="targetPoint" />
          </mxGeometry>
        </mxCell>
        <mxCell id="XIbWdu8kBzOMppEouueE-7" value="" style="html=1;verticalAlign=bottom;labelBackgroundColor=none;endArrow=block;endFill=1;rounded=0;exitX=0.5;exitY=1;exitDx=0;exitDy=0;entryX=0.5;entryY=0;entryDx=0;entryDy=0;" edge="1" parent="1">
          <mxGeometry width="160" relative="1" as="geometry">
            <mxPoint x="94.5" y="260" as="sourcePoint" />
            <mxPoint x="94.5" y="300" as="targetPoint" />
          </mxGeometry>
        </mxCell>
        <mxCell id="XIbWdu8kBzOMppEouueE-8" value="More products" style="html=1;align=center;verticalAlign=top;rounded=1;absoluteArcSize=1;arcSize=10;dashed=0;whiteSpace=wrap;" vertex="1" parent="1">
          <mxGeometry x="32.5" y="300" width="125" height="30" as="geometry" />
        </mxCell>
        <mxCell id="XIbWdu8kBzOMppEouueE-9" value="" style="ellipse;html=1;shape=endState;fillColor=strokeColor;" vertex="1" parent="1">
          <mxGeometry x="80" y="370" width="30" height="30" as="geometry" />
        </mxCell>
        <mxCell id="XIbWdu8kBzOMppEouueE-10" value="" style="html=1;verticalAlign=bottom;labelBackgroundColor=none;endArrow=block;endFill=1;rounded=0;exitX=0.5;exitY=1;exitDx=0;exitDy=0;entryX=0.5;entryY=0;entryDx=0;entryDy=0;" edge="1" parent="1">
          <mxGeometry width="160" relative="1" as="geometry">
            <mxPoint x="94.5" y="330" as="sourcePoint" />
            <mxPoint x="94.5" y="370" as="targetPoint" />
          </mxGeometry>
        </mxCell>
        <mxCell id="XIbWdu8kBzOMppEouueE-12" value="" style="endArrow=classic;html=1;rounded=0;exitX=1;exitY=0.5;exitDx=0;exitDy=0;entryX=1;entryY=0.5;entryDx=0;entryDy=0;" edge="1" parent="1" source="XIbWdu8kBzOMppEouueE-5" target="XIbWdu8kBzOMppEouueE-8">
          <mxGeometry relative="1" as="geometry">
            <mxPoint x="360" y="270" as="sourcePoint" />
            <mxPoint x="460" y="270" as="targetPoint" />
            <Array as="points">
              <mxPoint x="230" y="245" />
              <mxPoint x="230" y="315" />
            </Array>
          </mxGeometry>
        </mxCell>
        <mxCell id="XIbWdu8kBzOMppEouueE-13" value="No" style="edgeLabel;resizable=0;html=1;;align=center;verticalAlign=middle;" connectable="0" vertex="1" parent="XIbWdu8kBzOMppEouueE-12">
          <mxGeometry relative="1" as="geometry">
            <mxPoint y="14" as="offset" />
          </mxGeometry>
        </mxCell>
        <mxCell id="XIbWdu8kBzOMppEouueE-14" value="Activity Diagram" style="text;html=1;whiteSpace=wrap;strokeColor=none;fillColor=none;align=center;verticalAlign=middle;rounded=0;fontSize=16;fontStyle=1" vertex="1" parent="1">
          <mxGeometry x="40" y="20" width="130" height="40" as="geometry" />
        </mxCell>
      </root>
    </mxGraphModel>
  </diagram>
  <diagram id="u1kcVkVJ9Ylsqfeupd_Z" name="Trang-3">
    <mxGraphModel dx="969" dy="520" grid="1" gridSize="11" guides="1" tooltips="1" connect="1" arrows="1" fold="1" page="1" pageScale="1" pageWidth="827" pageHeight="1169" math="0" shadow="0">
      <root>
        <mxCell id="0" />
        <mxCell id="1" parent="0" />
        <mxCell id="ShtOqqNAcsHAscUqsm6--1" value="Product" style="swimlane;fontStyle=0;childLayout=stackLayout;horizontal=1;startSize=26;fillColor=none;horizontalStack=0;resizeParent=1;resizeParentMax=0;resizeLast=0;collapsible=1;marginBottom=0;whiteSpace=wrap;html=1;" vertex="1" parent="1">
          <mxGeometry x="40" y="280" width="140" height="104" as="geometry">
            <mxRectangle x="40" y="280" width="80" height="30" as="alternateBounds" />
          </mxGeometry>
        </mxCell>
        <mxCell id="ShtOqqNAcsHAscUqsm6--2" value="- productId: int" style="text;strokeColor=none;fillColor=none;align=left;verticalAlign=top;spacingLeft=4;spacingRight=4;overflow=hidden;rotatable=0;points=[[0,0.5],[1,0.5]];portConstraint=eastwest;whiteSpace=wrap;html=1;" vertex="1" parent="ShtOqqNAcsHAscUqsm6--1">
          <mxGeometry y="26" width="140" height="26" as="geometry" />
        </mxCell>
        <mxCell id="ShtOqqNAcsHAscUqsm6--3" value="- name: string" style="text;strokeColor=none;fillColor=none;align=left;verticalAlign=top;spacingLeft=4;spacingRight=4;overflow=hidden;rotatable=0;points=[[0,0.5],[1,0.5]];portConstraint=eastwest;whiteSpace=wrap;html=1;" vertex="1" parent="ShtOqqNAcsHAscUqsm6--1">
          <mxGeometry y="52" width="140" height="26" as="geometry" />
        </mxCell>
        <mxCell id="ShtOqqNAcsHAscUqsm6--4" value="- price: float" style="text;strokeColor=none;fillColor=none;align=left;verticalAlign=top;spacingLeft=4;spacingRight=4;overflow=hidden;rotatable=0;points=[[0,0.5],[1,0.5]];portConstraint=eastwest;whiteSpace=wrap;html=1;" vertex="1" parent="ShtOqqNAcsHAscUqsm6--1">
          <mxGeometry y="78" width="140" height="26" as="geometry" />
        </mxCell>
        <mxCell id="ShtOqqNAcsHAscUqsm6--10" value="&lt;span style=&quot;font-weight: 400;&quot;&gt;Order&lt;/span&gt;" style="swimlane;fontStyle=1;align=center;verticalAlign=top;childLayout=stackLayout;horizontal=1;startSize=26;horizontalStack=0;resizeParent=1;resizeParentMax=0;resizeLast=0;collapsible=1;marginBottom=0;whiteSpace=wrap;html=1;" vertex="1" parent="1">
          <mxGeometry x="390" y="272" width="160" height="120" as="geometry" />
        </mxCell>
        <mxCell id="ShtOqqNAcsHAscUqsm6--11" value="- orderId: int&lt;div&gt;- orderDate: date&lt;/div&gt;" style="text;strokeColor=none;fillColor=none;align=left;verticalAlign=top;spacingLeft=4;spacingRight=4;overflow=hidden;rotatable=0;points=[[0,0.5],[1,0.5]];portConstraint=eastwest;whiteSpace=wrap;html=1;" vertex="1" parent="ShtOqqNAcsHAscUqsm6--10">
          <mxGeometry y="26" width="160" height="44" as="geometry" />
        </mxCell>
        <mxCell id="ShtOqqNAcsHAscUqsm6--12" value="" style="line;strokeWidth=1;fillColor=none;align=left;verticalAlign=middle;spacingTop=-1;spacingLeft=3;spacingRight=3;rotatable=0;labelPosition=right;points=[];portConstraint=eastwest;strokeColor=inherit;" vertex="1" parent="ShtOqqNAcsHAscUqsm6--10">
          <mxGeometry y="70" width="160" height="8" as="geometry" />
        </mxCell>
        <mxCell id="ShtOqqNAcsHAscUqsm6--13" value="+ calculateTotal() fleat&lt;div&gt;+ addProduct()&lt;/div&gt;" style="text;strokeColor=none;fillColor=none;align=left;verticalAlign=top;spacingLeft=4;spacingRight=4;overflow=hidden;rotatable=0;points=[[0,0.5],[1,0.5]];portConstraint=eastwest;whiteSpace=wrap;html=1;" vertex="1" parent="ShtOqqNAcsHAscUqsm6--10">
          <mxGeometry y="78" width="160" height="42" as="geometry" />
        </mxCell>
        <mxCell id="ShtOqqNAcsHAscUqsm6--14" value="1" style="html=1;verticalAlign=bottom;labelBackgroundColor=none;endArrow=none;endFill=0;endSize=6;align=left;rounded=0;entryX=1;entryY=0.5;entryDx=0;entryDy=0;exitX=0;exitY=0.5;exitDx=0;exitDy=0;" edge="1" parent="1" source="ShtOqqNAcsHAscUqsm6--11" target="ShtOqqNAcsHAscUqsm6--2">
          <mxGeometry x="-0.5713" y="-1" relative="1" as="geometry">
            <mxPoint x="300" y="319" as="sourcePoint" />
            <mxPoint x="490" y="470" as="targetPoint" />
            <mxPoint as="offset" />
          </mxGeometry>
        </mxCell>
        <mxCell id="ShtOqqNAcsHAscUqsm6--15" value="Orderitem" style="swimlane;fontStyle=0;childLayout=stackLayout;horizontal=1;startSize=26;fillColor=none;horizontalStack=0;resizeParent=1;resizeParentMax=0;resizeLast=0;collapsible=1;marginBottom=0;whiteSpace=wrap;html=1;" vertex="1" parent="1">
          <mxGeometry x="400" y="460" width="140" height="78" as="geometry">
            <mxRectangle x="40" y="280" width="80" height="30" as="alternateBounds" />
          </mxGeometry>
        </mxCell>
        <mxCell id="ShtOqqNAcsHAscUqsm6--16" value="- quantity: int" style="text;strokeColor=none;fillColor=none;align=left;verticalAlign=top;spacingLeft=4;spacingRight=4;overflow=hidden;rotatable=0;points=[[0,0.5],[1,0.5]];portConstraint=eastwest;whiteSpace=wrap;html=1;" vertex="1" parent="ShtOqqNAcsHAscUqsm6--15">
          <mxGeometry y="26" width="140" height="26" as="geometry" />
        </mxCell>
        <mxCell id="ShtOqqNAcsHAscUqsm6--17" value="- getSubtotalt()" style="text;strokeColor=none;fillColor=none;align=left;verticalAlign=top;spacingLeft=4;spacingRight=4;overflow=hidden;rotatable=0;points=[[0,0.5],[1,0.5]];portConstraint=eastwest;whiteSpace=wrap;html=1;" vertex="1" parent="ShtOqqNAcsHAscUqsm6--15">
          <mxGeometry y="52" width="140" height="26" as="geometry" />
        </mxCell>
        <mxCell id="ShtOqqNAcsHAscUqsm6--23" value="" style="endArrow=none;html=1;rounded=0;entryX=0.504;entryY=0.976;entryDx=0;entryDy=0;entryPerimeter=0;exitX=0.5;exitY=0;exitDx=0;exitDy=0;" edge="1" parent="1" source="ShtOqqNAcsHAscUqsm6--15" target="ShtOqqNAcsHAscUqsm6--13">
          <mxGeometry width="50" height="50" relative="1" as="geometry">
            <mxPoint x="390" y="500" as="sourcePoint" />
            <mxPoint x="440" y="450" as="targetPoint" />
          </mxGeometry>
        </mxCell>
        <mxCell id="ShtOqqNAcsHAscUqsm6--24" value="Customer" style="swimlane;fontStyle=0;childLayout=stackLayout;horizontal=1;startSize=26;fillColor=none;horizontalStack=0;resizeParent=1;resizeParentMax=0;resizeLast=0;collapsible=1;marginBottom=0;whiteSpace=wrap;html=1;" vertex="1" parent="1">
          <mxGeometry x="220" y="518" width="140" height="104" as="geometry">
            <mxRectangle x="40" y="280" width="80" height="30" as="alternateBounds" />
          </mxGeometry>
        </mxCell>
        <mxCell id="ShtOqqNAcsHAscUqsm6--25" value="- customerId: int" style="text;strokeColor=none;fillColor=none;align=left;verticalAlign=top;spacingLeft=4;spacingRight=4;overflow=hidden;rotatable=0;points=[[0,0.5],[1,0.5]];portConstraint=eastwest;whiteSpace=wrap;html=1;" vertex="1" parent="ShtOqqNAcsHAscUqsm6--24">
          <mxGeometry y="26" width="140" height="26" as="geometry" />
        </mxCell>
        <mxCell id="ShtOqqNAcsHAscUqsm6--26" value="- name: string" style="text;strokeColor=none;fillColor=none;align=left;verticalAlign=top;spacingLeft=4;spacingRight=4;overflow=hidden;rotatable=0;points=[[0,0.5],[1,0.5]];portConstraint=eastwest;whiteSpace=wrap;html=1;" vertex="1" parent="ShtOqqNAcsHAscUqsm6--24">
          <mxGeometry y="52" width="140" height="26" as="geometry" />
        </mxCell>
        <mxCell id="ShtOqqNAcsHAscUqsm6--27" value="- email: string" style="text;strokeColor=none;fillColor=none;align=left;verticalAlign=top;spacingLeft=4;spacingRight=4;overflow=hidden;rotatable=0;points=[[0,0.5],[1,0.5]];portConstraint=eastwest;whiteSpace=wrap;html=1;" vertex="1" parent="ShtOqqNAcsHAscUqsm6--24">
          <mxGeometry y="78" width="140" height="26" as="geometry" />
        </mxCell>
        <mxCell id="ShtOqqNAcsHAscUqsm6--28" value="Inventory" style="swimlane;fontStyle=0;childLayout=stackLayout;horizontal=1;startSize=26;fillColor=none;horizontalStack=0;resizeParent=1;resizeParentMax=0;resizeLast=0;collapsible=1;marginBottom=0;whiteSpace=wrap;html=1;" vertex="1" parent="1">
          <mxGeometry x="40" y="440" width="140" height="78" as="geometry">
            <mxRectangle x="40" y="280" width="80" height="30" as="alternateBounds" />
          </mxGeometry>
        </mxCell>
        <mxCell id="ShtOqqNAcsHAscUqsm6--29" value="- inventoryId: int" style="text;strokeColor=none;fillColor=none;align=left;verticalAlign=top;spacingLeft=4;spacingRight=4;overflow=hidden;rotatable=0;points=[[0,0.5],[1,0.5]];portConstraint=eastwest;whiteSpace=wrap;html=1;" vertex="1" parent="ShtOqqNAcsHAscUqsm6--28">
          <mxGeometry y="26" width="140" height="26" as="geometry" />
        </mxCell>
        <mxCell id="ShtOqqNAcsHAscUqsm6--30" value="- quantity: int" style="text;strokeColor=none;fillColor=none;align=left;verticalAlign=top;spacingLeft=4;spacingRight=4;overflow=hidden;rotatable=0;points=[[0,0.5],[1,0.5]];portConstraint=eastwest;whiteSpace=wrap;html=1;" vertex="1" parent="ShtOqqNAcsHAscUqsm6--28">
          <mxGeometry y="52" width="140" height="26" as="geometry" />
        </mxCell>
        <mxCell id="ShtOqqNAcsHAscUqsm6--32" value="1" style="html=1;verticalAlign=bottom;labelBackgroundColor=none;endArrow=none;endFill=0;endSize=6;align=left;rounded=0;entryX=0;entryY=0.25;entryDx=0;entryDy=0;exitX=1;exitY=0.5;exitDx=0;exitDy=0;" edge="1" parent="1" source="ShtOqqNAcsHAscUqsm6--29" target="ShtOqqNAcsHAscUqsm6--15">
          <mxGeometry x="-0.5713" y="-1" relative="1" as="geometry">
            <mxPoint x="480" y="431" as="sourcePoint" />
            <mxPoint x="270" y="430" as="targetPoint" />
            <mxPoint as="offset" />
          </mxGeometry>
        </mxCell>
        <mxCell id="ShtOqqNAcsHAscUqsm6--33" value="" style="endArrow=none;html=1;rounded=0;exitX=0.5;exitY=0;exitDx=0;exitDy=0;" edge="1" parent="1" source="ShtOqqNAcsHAscUqsm6--24">
          <mxGeometry width="50" height="50" relative="1" as="geometry">
            <mxPoint x="390" y="500" as="sourcePoint" />
            <mxPoint x="290" y="480" as="targetPoint" />
          </mxGeometry>
        </mxCell>
        <mxCell id="ShtOqqNAcsHAscUqsm6--34" value="" style="endArrow=block;html=1;rounded=0;exitX=0.5;exitY=0;exitDx=0;exitDy=0;entryX=0.507;entryY=0.962;entryDx=0;entryDy=0;entryPerimeter=0;endFill=0;" edge="1" parent="1" source="ShtOqqNAcsHAscUqsm6--28" target="ShtOqqNAcsHAscUqsm6--4">
          <mxGeometry width="50" height="50" relative="1" as="geometry">
            <mxPoint x="390" y="500" as="sourcePoint" />
            <mxPoint x="110" y="390" as="targetPoint" />
          </mxGeometry>
        </mxCell>
        <mxCell id="ShtOqqNAcsHAscUqsm6--35" value="Class Diagram" style="text;html=1;whiteSpace=wrap;strokeColor=none;fillColor=none;align=center;verticalAlign=middle;rounded=0;fontSize=20;fontStyle=1" vertex="1" parent="1">
          <mxGeometry x="191" y="198" width="198" height="33" as="geometry" />
        </mxCell>
      </root>
    </mxGraphModel>
  </diagram>
  <diagram id="JlWLiJnnC0Akj7PJNcth" name="Trang-4">
    <mxGraphModel dx="969" dy="520" grid="1" gridSize="11" guides="1" tooltips="1" connect="1" arrows="1" fold="1" page="1" pageScale="1" pageWidth="827" pageHeight="1169" math="0" shadow="0">
      <root>
        <mxCell id="0" />
        <mxCell id="1" parent="0" />
        <mxCell id="QGbOM_ODAkidfxWVkUnP-4" value="Customer" style="fontStyle=0;html=1;whiteSpace=wrap;" vertex="1" parent="1">
          <mxGeometry x="66" y="99" width="99" height="33" as="geometry" />
        </mxCell>
        <mxCell id="QGbOM_ODAkidfxWVkUnP-5" value="Customer" style="fontStyle=0;html=1;whiteSpace=wrap;" vertex="1" parent="1">
          <mxGeometry x="66" y="341" width="99" height="33" as="geometry" />
        </mxCell>
        <mxCell id="QGbOM_ODAkidfxWVkUnP-6" value="OrderController" style="fontStyle=0;html=1;whiteSpace=wrap;" vertex="1" parent="1">
          <mxGeometry x="297" y="99" width="121" height="33" as="geometry" />
        </mxCell>
        <mxCell id="QGbOM_ODAkidfxWVkUnP-7" value="Invoice" style="fontStyle=0;html=1;whiteSpace=wrap;" vertex="1" parent="1">
          <mxGeometry x="539" y="99" width="99" height="33" as="geometry" />
        </mxCell>
        <mxCell id="QGbOM_ODAkidfxWVkUnP-8" value="Invoice" style="fontStyle=0;html=1;whiteSpace=wrap;" vertex="1" parent="1">
          <mxGeometry x="308" y="341" width="99" height="33" as="geometry" />
        </mxCell>
        <mxCell id="QGbOM_ODAkidfxWVkUnP-9" value="" style="endArrow=none;dashed=1;html=1;rounded=0;entryX=0.5;entryY=1;entryDx=0;entryDy=0;exitX=0.5;exitY=0;exitDx=0;exitDy=0;" edge="1" parent="1" source="QGbOM_ODAkidfxWVkUnP-5" target="QGbOM_ODAkidfxWVkUnP-4">
          <mxGeometry width="50" height="50" relative="1" as="geometry">
            <mxPoint x="385" y="292" as="sourcePoint" />
            <mxPoint x="435" y="242" as="targetPoint" />
          </mxGeometry>
        </mxCell>
        <mxCell id="QGbOM_ODAkidfxWVkUnP-10" value="" style="endArrow=none;dashed=1;html=1;rounded=0;entryX=0.5;entryY=1;entryDx=0;entryDy=0;exitX=0.5;exitY=0;exitDx=0;exitDy=0;" edge="1" parent="1" source="QGbOM_ODAkidfxWVkUnP-8" target="QGbOM_ODAkidfxWVkUnP-6">
          <mxGeometry width="50" height="50" relative="1" as="geometry">
            <mxPoint x="385" y="292" as="sourcePoint" />
            <mxPoint x="435" y="242" as="targetPoint" />
          </mxGeometry>
        </mxCell>
        <mxCell id="QGbOM_ODAkidfxWVkUnP-12" value="" style="endArrow=none;dashed=1;html=1;rounded=0;entryX=0.5;entryY=1;entryDx=0;entryDy=0;" edge="1" parent="1" target="QGbOM_ODAkidfxWVkUnP-7">
          <mxGeometry width="50" height="50" relative="1" as="geometry">
            <mxPoint x="589" y="374" as="sourcePoint" />
            <mxPoint x="435" y="242" as="targetPoint" />
          </mxGeometry>
        </mxCell>
        <mxCell id="QGbOM_ODAkidfxWVkUnP-14" value="CreavieInvoice()" style="html=1;verticalAlign=bottom;labelBackgroundColor=none;endArrow=open;endFill=0;rounded=0;" edge="1" parent="1">
          <mxGeometry x="0.4286" width="160" relative="1" as="geometry">
            <mxPoint x="121" y="176" as="sourcePoint" />
            <mxPoint x="352" y="176" as="targetPoint" />
            <mxPoint as="offset" />
          </mxGeometry>
        </mxCell>
        <mxCell id="QGbOM_ODAkidfxWVkUnP-16" value="calculateTotal()" style="endArrow=open;html=1;rounded=0;align=center;verticalAlign=bottom;endFill=0;labelBackgroundColor=none;" edge="1" parent="1">
          <mxGeometry relative="1" as="geometry">
            <mxPoint x="352" y="308" as="sourcePoint" />
            <mxPoint x="121" y="308" as="targetPoint" />
          </mxGeometry>
        </mxCell>
        <mxCell id="QGbOM_ODAkidfxWVkUnP-17" value="save()" style="resizable=0;html=1;align=center;verticalAlign=top;labelBackgroundColor=none;" connectable="0" vertex="1" parent="QGbOM_ODAkidfxWVkUnP-16">
          <mxGeometry relative="1" as="geometry" />
        </mxCell>
        <mxCell id="QGbOM_ODAkidfxWVkUnP-18" value="ađdproduct(productId, quantity)" style="endArrow=open;html=1;rounded=0;align=center;verticalAlign=bottom;endFill=0;labelBackgroundColor=none;" edge="1" parent="1">
          <mxGeometry relative="1" as="geometry">
            <mxPoint x="583" y="264" as="sourcePoint" />
            <mxPoint x="363" y="264" as="targetPoint" />
          </mxGeometry>
        </mxCell>
        <mxCell id="QGbOM_ODAkidfxWVkUnP-19" value="total" style="resizable=0;html=1;align=center;verticalAlign=top;labelBackgroundColor=none;" connectable="0" vertex="1" parent="QGbOM_ODAkidfxWVkUnP-18">
          <mxGeometry relative="1" as="geometry" />
        </mxCell>
        <mxCell id="QGbOM_ODAkidfxWVkUnP-20" value="Sequence Diagram" style="text;html=1;whiteSpace=wrap;strokeColor=none;fillColor=none;align=center;verticalAlign=middle;rounded=0;fontSize=18;fontStyle=1" vertex="1" parent="1">
          <mxGeometry x="258.5" y="22" width="198" height="33" as="geometry" />
        </mxCell>
      </root>
    </mxGraphModel>
  </diagram>
</mxfile>
